<svg xmlns="http://www.w3.org/2000/svg" viewBox="0 0 50 50"><path d="M23.75 2C12.800781 2 6 8.820313 6 19.78125c0 1.5625.214844 3.101563.4375 4.75C7.042969 28.972656 7.671875 33.578125 4 38.5625c-.160156.21875-.234375.480469-.1875.75s.210938.503906.4375.65625c.167969.109375 4.152344 2.710938 13.25 3.71875C19.804688 46.464844 22.449219 48 25 48c2.5625 0 5.226563-1.527344 7.53125-4.3125 9.09375-1.015625 13.324219-3.578125 13.5-3.6875.242188-.148437.386719-.410156.4375-.6875.050781-.277344-.011719-.558594-.1875-.78125-3.726562-4.789062-3.226562-8.863281-2.6875-13.1875C43.785156 23.800781 44 22.195313 44 20.5625c0-6.535156-2.921875-14.152344-11.125-14.40625C29.402344 2.71875 26.007813 2 23.75 2Zm8.09375 15.34375C33.328125 18.921875 36 22.53125 36 28.28125c0 7.671875-4.765625 13.78125-4.8125 13.84375-.007812.011719.007813.019531 0 .03125C29.21875 44.628906 27.023438 46 25 46c-2.027344 0-4.242187-1.378906-6.21875-3.875-.007812-.011719-.023437-.019531-.03125-.03125C18.703125 42.050781 14 37.570313 14 31c0-5.003906 4.296875-6.054687 8.09375-6.96875.785156-.1875 1.515625-.355469 2.1875-.5625 4.488281-1.390625 6.640625-4.34375 7.5625-6.125ZM19.5 28c-.828125 0-1.5.671875-1.5 1.5s.671875 1.5 1.5 1.5 1.5-.671875 1.5-1.5-.671875-1.5-1.5-1.5Zm11 0c-.828125 0-1.5.671875-1.5 1.5s.671875 1.5 1.5 1.5 1.5-.671875 1.5-1.5-.671875-1.5-1.5-1.5Z"/></svg>